<svg t="1745403107981" class="icon" viewBox="0 0 1109 1024" version="1.1" xmlns="http://www.w3.org/2000/svg" p-id="4936"
     width="20" height="20">
    <path d="M1013.91133 797.004926c60.53202-80.70936 95.842365-181.596059 95.842365-287.527093C1109.753695 226.995074 862.581281 0 554.876847 0S0 226.995074 0 509.477833s247.172414 509.477833 554.876847 509.477832c95.842365 0 186.640394-20.17734 267.349754-65.576355 70.62069 15.133005 146.285714 40.35468 216.906404 60.53202 20.17734 5.044335 40.35468 0 55.487685-15.133005 15.133005-15.133005 15.133005-40.35468 5.044335-55.487685l-85.753695-146.285714z m-105.931034 20.17734l40.354679 65.576355-121.064039-30.26601c-10.08867-5.044335-25.221675 0-35.310345 5.044335-70.62069 40.35468-156.374384 60.53202-237.083744 60.53202-252.216749 0-453.990148-181.596059-453.990147-408.591133S302.660099 100.8867 554.876847 100.8867s453.990148 181.596059 453.990148 408.591133c0 90.79803-35.310345 181.596059-95.842364 247.172413-15.133005 20.17734-15.133005 45.399015-5.044335 60.53202zM292.571429 423.724138c-45.399015 0-85.753695 40.35468-85.753695 85.753695 0 45.399015 40.35468 85.753695 85.753695 85.753694 45.399015 0 85.753695-40.35468 85.753694-85.753694 0-45.399015-40.35468-85.753695-85.753694-85.753695z m0 100.886699c-10.08867 0-15.133005-5.044335-15.133005-15.133004s5.044335-15.133005 15.133005-15.133005c10.08867 0 15.133005 5.044335 15.133004 15.133005s-10.08867 15.133005-15.133004 15.133004z m262.305418-100.886699c-45.399015 0-85.753695 40.35468-85.753694 85.753695 0 45.399015 40.35468 85.753695 85.753694 85.753694s85.753695-40.35468 85.753695-85.753694c0-45.399015-40.35468-85.753695-85.753695-85.753695z m0 100.886699c-10.08867 0-15.133005-5.044335-15.133005-15.133004s5.044335-15.133005 15.133005-15.133005 15.133005 5.044335 15.133005 15.133005-5.044335 15.133005-15.133005 15.133004z m262.305419-100.886699c-45.399015 0-85.753695 40.35468-85.753695 85.753695 0 45.399015 40.35468 85.753695 85.753695 85.753694s85.753695-40.35468 85.753695-85.753694c0-45.399015-35.310345-85.753695-85.753695-85.753695z m0 100.886699c-10.08867 0-15.133005-5.044335-15.133005-15.133004s5.044335-15.133005 15.133005-15.133005 15.133005 5.044335 15.133005 15.133005-5.044335 15.133005-15.133005 15.133004z"
          fill="#808080" p-id="4937"></path>
</svg>
